<?xml version="1.0" encoding="UTF-8"?>
<svg xmlns="http://www.w3.org/2000/svg" xmlns:xlink="http://www.w3.org/1999/xlink" viewBox="0 0 480 480" width="480px" height="480px">
<g id="surface192324925">
<path style=" stroke:none;fill-rule:nonzero;fill:rgb(20.392157%,59.607846%,85.882354%);fill-opacity:1;" d="M 288.300781 28.800781 C 286.726562 28.761719 285.148438 29.101562 283.726562 29.8125 C 277.6875 32.8125 273.824219 37.238281 270.335938 41.101562 C 266.886719 44.960938 264.300781 48.414062 264.300781 48.414062 C 264.1875 48.5625 264.074219 48.710938 264 48.863281 C 254.476562 63.1875 249.789062 79.5 249.601562 95.925781 C 249.488281 108.5625 252.039062 121.273438 256.988281 133.238281 C 269.101562 162.300781 293.4375 184.761719 322.050781 195.488281 L 322.085938 195.488281 C 323.398438 196.011719 324.5625 196.425781 325.5 196.761719 C 325.648438 196.800781 325.800781 196.835938 325.949219 196.914062 C 326.136719 196.949219 326.550781 197.101562 327.261719 197.289062 C 328.351562 197.664062 330.1875 198.414062 332.886719 198.9375 C 340.726562 200.511719 348.039062 201.335938 354.898438 201.5625 C 385.273438 202.5 406.3125 190.800781 419.4375 178.011719 C 426 171.601562 430.6875 164.960938 433.988281 159.5625 C 437.324219 154.164062 439.875 149.289062 439.914062 149.25 L 439.949219 149.25 C 442.835938 144.863281 441.675781 138.976562 437.363281 136.011719 C 433.011719 133.050781 427.085938 134.136719 424.050781 138.449219 C 416.625 149.363281 407.398438 155.625 395.625 158.664062 C 383.851562 161.699219 369.375 161.25 352.761719 157.125 C 350.511719 156.5625 347.738281 155.664062 345.226562 154.726562 C 345.226562 154.726562 345.1875 154.726562 345.148438 154.6875 C 342.113281 153.601562 339 152.289062 335.960938 150.824219 L 335.925781 150.789062 L 335.851562 150.75 C 330.1875 147.9375 324.710938 144.5625 319.726562 140.664062 C 305.925781 129.9375 295.199219 112.386719 290.625 94.050781 C 286.050781 75.710938 287.625 57.039062 296.136719 43.5 C 297.976562 40.574219 298.085938 36.898438 296.476562 33.863281 C 294.863281 30.824219 291.75 28.914062 288.300781 28.800781 Z M 201.5625 48 C 199.351562 48 197.210938 48.789062 195.523438 50.175781 C 180.148438 62.699219 165.523438 82.164062 165.523438 82.164062 C 165.414062 82.273438 165.335938 82.425781 165.261719 82.574219 C 136.835938 123.898438 138.601562 178.238281 160.238281 221.101562 C 163.800781 228.1875 167.851562 235.085938 172.386719 241.648438 C 172.425781 241.6875 172.425781 241.6875 172.425781 241.6875 C 175.988281 246.9375 180.300781 253.800781 186.523438 259.539062 C 188.550781 261.863281 190.648438 264.039062 192.75 266.101562 C 193.238281 266.625 193.761719 267.148438 194.25 267.636719 C 194.289062 267.710938 194.324219 267.75 194.363281 267.75 C 196.351562 269.699219 198.414062 271.648438 200.550781 273.5625 L 200.585938 273.601562 C 200.664062 273.675781 200.773438 273.789062 200.851562 273.863281 L 201 273.9375 C 201.113281 274.085938 201.261719 274.199219 201.414062 274.3125 C 203.664062 276.335938 205.949219 278.25 208.3125 280.085938 C 208.425781 280.199219 208.5 280.273438 208.613281 280.351562 C 208.613281 280.351562 209.136719 280.800781 210.226562 281.585938 C 212.625 283.460938 215.0625 285.261719 217.460938 286.988281 C 217.761719 287.210938 218.101562 287.4375 218.398438 287.585938 C 218.625 287.738281 218.773438 287.851562 218.960938 288 L 219 288 C 219.863281 288.601562 220.726562 289.164062 221.4375 289.648438 C 221.664062 289.800781 222.1875 290.175781 223.050781 290.738281 C 224.925781 291.976562 226.761719 293.101562 228.675781 294.261719 C 228.863281 294.375 229.085938 294.488281 229.273438 294.601562 C 229.273438 294.601562 229.574219 294.75 229.914062 294.898438 C 229.988281 294.976562 229.988281 294.9375 230.101562 295.011719 C 231.601562 295.914062 233.136719 296.8125 234.75 297.636719 C 235.3125 297.976562 235.988281 298.3125 236.175781 298.425781 C 236.289062 298.5 236.398438 298.539062 236.511719 298.613281 C 237.488281 299.101562 238.539062 299.664062 239.625 300.261719 C 240.5625 300.75 240.824219 300.789062 240.75 300.789062 C 243.148438 301.949219 245.4375 303 247.574219 304.011719 C 247.726562 304.050781 247.875 304.125 248.0625 304.199219 C 248.511719 304.386719 248.886719 304.539062 249.375 304.761719 C 251.289062 305.550781 253.273438 306.449219 255.375 307.238281 C 255.488281 307.273438 255.636719 307.351562 255.75 307.386719 C 256.164062 307.539062 256.875 307.800781 257.960938 308.210938 C 257.960938 308.210938 258 308.210938 258 308.25 C 259.800781 308.886719 261.636719 309.488281 263.4375 310.085938 C 264.375 310.425781 265.199219 310.6875 265.914062 310.949219 C 265.914062 310.949219 265.914062 310.949219 265.949219 310.949219 C 267.9375 311.585938 270.898438 312.824219 274.914062 313.5 C 274.914062 313.5 274.914062 313.460938 274.949219 313.5 C 290.101562 316.011719 304.085938 317.023438 316.988281 316.761719 C 369.75 315.601562 403.949219 292.351562 424.011719 269.476562 C 444.039062 246.601562 450.789062 223.5 450.789062 223.5 C 452.136719 218.960938 449.960938 214.164062 445.6875 212.136719 C 441.449219 210.113281 436.351562 211.5 433.648438 215.398438 C 408.148438 252.675781 358.574219 271.835938 304.351562 257.550781 C 301.949219 256.949219 299.625 256.273438 297.335938 255.488281 C 297.1875 255.449219 297 255.375 296.8125 255.335938 C 296.476562 255.261719 296.023438 255.113281 295.238281 254.851562 C 295.164062 254.8125 295.085938 254.773438 295.050781 254.738281 C 293.289062 254.175781 291.636719 253.648438 290.136719 253.050781 C 290.136719 253.050781 290.136719 253.050781 290.101562 253.050781 C 289.238281 252.710938 288.488281 252.449219 287.851562 252.1875 C 285.9375 251.4375 284.136719 250.726562 282.601562 250.050781 C 282.488281 249.976562 282.414062 249.9375 282.300781 249.898438 C 281.476562 249.5625 281.101562 249.375 281.625 249.636719 C 281.398438 249.523438 281.175781 249.449219 280.949219 249.335938 C 278.851562 248.398438 276.675781 247.386719 274.5 246.300781 L 274.351562 246.261719 C 274.351562 246.226562 274.3125 246.226562 274.273438 246.1875 C 273.1875 245.625 272.136719 245.101562 271.050781 244.5 C 271.011719 244.5 270.976562 244.460938 270.898438 244.460938 C 270.226562 244.085938 269.585938 243.75 269.023438 243.449219 L 269.023438 243.488281 C 267.789062 242.851562 266.511719 242.0625 265.011719 241.164062 C 264.898438 241.125 264.824219 241.085938 264.75 241.050781 C 264.300781 240.789062 264.148438 240.710938 264.074219 240.636719 L 264.039062 240.636719 L 263.960938 240.601562 C 262.125 239.476562 260.398438 238.425781 259.050781 237.488281 C 258.863281 237.375 258.636719 237.261719 258.449219 237.148438 C 258.601562 237.226562 258.1875 236.925781 257.210938 236.289062 C 256.199219 235.648438 255.148438 234.976562 254.023438 234.1875 L 253.988281 234.1875 C 253.949219 234.148438 253.914062 234.113281 253.835938 234.113281 C 251.738281 232.574219 249.5625 230.925781 247.351562 229.238281 L 247.164062 229.050781 C 246.636719 228.636719 246.1875 228.300781 245.886719 228.039062 C 245.8125 228 245.738281 227.925781 245.664062 227.851562 C 221.738281 208.761719 202.914062 182.625 194.0625 153.414062 L 194.0625 153.375 C 185.175781 124.613281 194.324219 89.289062 209.886719 62.398438 C 211.613281 59.4375 211.613281 55.761719 209.886719 52.761719 C 208.164062 49.800781 204.976562 48 201.5625 48 Z M 96.039062 76.800781 C 93.675781 76.800781 91.351562 77.664062 89.585938 79.273438 C 89.0625 79.726562 88.800781 80.210938 88.273438 80.699219 C 69.636719 97.949219 56.363281 118.949219 56.101562 119.398438 C 17.476562 175.539062 22.613281 261.675781 51.449219 319.835938 C 51.449219 319.875 51.449219 319.914062 51.449219 319.949219 C 52.199219 321.523438 52.949219 322.914062 53.550781 324 C 53.851562 324.675781 54.1875 325.3125 54.523438 325.949219 C 55.238281 327.5625 55.761719 328.238281 55.835938 328.351562 C 56.289062 329.210938 56.738281 330.074219 57.074219 330.710938 C 57.113281 330.789062 57.1875 330.898438 57.226562 330.976562 C 58.085938 332.363281 58.914062 333.898438 59.851562 335.4375 C 59.851562 335.476562 59.886719 335.511719 59.925781 335.550781 C 60.335938 336.226562 60.863281 337.199219 61.6875 338.398438 C 62.738281 340.125 63.710938 341.664062 64.425781 342.789062 C 64.460938 342.863281 64.5 342.898438 64.5 342.9375 C 64.875 343.5 65.324219 344.25 65.886719 345.039062 C 65.925781 345.113281 65.960938 345.148438 66 345.1875 C 66.039062 345.261719 66.039062 345.300781 66.113281 345.414062 C 67.425781 347.398438 68.8125 349.460938 70.351562 351.601562 C 70.5 351.789062 70.460938 351.710938 70.574219 351.898438 C 70.6875 352.050781 70.6875 352.050781 70.761719 352.164062 C 70.800781 352.199219 70.875 352.3125 70.914062 352.386719 L 70.949219 352.425781 C 71.023438 352.539062 71.324219 352.914062 71.324219 352.914062 C 71.324219 352.949219 71.363281 352.988281 71.398438 352.988281 C 72.75 354.863281 74.136719 356.773438 75.601562 358.648438 C 76.164062 359.398438 76.648438 360.039062 76.914062 360.375 C 76.988281 360.488281 77.101562 360.601562 77.175781 360.75 C 78.414062 362.210938 79.613281 363.710938 80.851562 365.25 C 80.886719 365.324219 80.925781 365.363281 80.960938 365.398438 C 81.335938 365.851562 81.824219 366.414062 82.351562 367.050781 C 83.960938 369 85.613281 370.875 87.300781 372.75 C 87.449219 372.898438 87.601562 373.085938 87.75 373.238281 L 87.675781 373.125 C 88.164062 373.6875 89.023438 374.625 89.886719 375.1875 L 88.085938 373.648438 C 89.851562 375.601562 91.648438 377.511719 93.449219 379.425781 C 93.488281 379.460938 93.523438 379.460938 93.523438 379.5 C 94.164062 380.136719 94.800781 380.773438 95.476562 381.449219 C 96.75 382.726562 98.101562 384.113281 99.675781 385.613281 C 100.273438 386.175781 100.875 386.699219 101.289062 387.148438 C 101.324219 387.1875 101.324219 387.1875 101.363281 387.1875 C 103.085938 388.835938 104.960938 390.601562 106.949219 392.363281 C 107.136719 392.476562 107.25 392.625 107.398438 392.738281 C 107.398438 392.773438 107.398438 392.773438 107.398438 392.773438 C 107.925781 393.226562 108.226562 393.488281 108.148438 393.414062 C 108.261719 393.488281 108.335938 393.601562 108.449219 393.675781 C 110.210938 395.210938 111.976562 396.710938 113.738281 398.210938 C 114.601562 398.886719 115.351562 399.488281 115.988281 400.050781 C 116.023438 400.050781 116.023438 400.050781 116.0625 400.050781 C 117.636719 401.363281 119.136719 402.488281 120.5625 403.574219 C 120.5625 403.613281 120.601562 403.613281 120.601562 403.648438 C 121.3125 404.175781 122.0625 404.738281 122.886719 405.375 C 122.925781 405.414062 122.960938 405.414062 123 405.449219 C 124.6875 406.726562 126.375 407.925781 127.988281 409.085938 C 128.476562 409.460938 129.039062 409.835938 129.636719 410.25 C 129.601562 410.210938 129.824219 410.398438 129.75 410.363281 C 130.011719 410.550781 130.273438 410.738281 130.5 410.886719 C 132.074219 411.9375 133.613281 412.988281 135.226562 414.039062 C 135.226562 414.074219 135.261719 414.074219 135.261719 414.074219 C 135.976562 414.523438 136.613281 414.976562 137.25 415.386719 C 137.289062 415.425781 137.324219 415.460938 137.398438 415.5 C 139.949219 417.148438 142.460938 418.6875 144.9375 420.1875 C 145.085938 420.300781 145.238281 420.375 145.386719 420.449219 C 145.988281 420.789062 146.550781 421.085938 147.074219 421.386719 C 147.113281 421.425781 147.113281 421.425781 147.148438 421.460938 C 149.0625 422.550781 150.976562 423.675781 153 424.761719 L 152.8125 424.648438 C 154.164062 425.398438 155.363281 425.960938 156.335938 426.449219 C 157.539062 427.125 158.8125 427.835938 160.164062 428.511719 C 160.351562 428.625 160.574219 428.738281 160.800781 428.851562 C 161.511719 429.113281 161.511719 429.1875 160.761719 428.738281 C 161.023438 428.925781 161.289062 429.039062 161.550781 429.148438 C 161.664062 429.226562 162.074219 429.414062 162.789062 429.789062 C 162.824219 429.789062 162.824219 429.789062 162.863281 429.789062 C 165.074219 430.914062 167.25 431.925781 169.5 432.898438 C 170.023438 433.164062 170.363281 433.3125 170.25 433.238281 C 170.476562 433.351562 170.664062 433.460938 170.851562 433.539062 C 173.363281 434.664062 175.914062 435.710938 178.5 436.761719 C 178.539062 436.761719 178.613281 436.800781 178.648438 436.800781 C 178.800781 436.835938 179.550781 437.175781 180.300781 437.4375 C 180.449219 437.511719 180.601562 437.550781 180.75 437.585938 C 180.824219 437.625 180.789062 437.625 180.863281 437.664062 C 182.925781 438.449219 184.988281 439.238281 187.050781 439.949219 C 187.613281 440.210938 188.101562 440.363281 188.4375 440.511719 C 191.136719 441.414062 193.761719 442.273438 196.460938 443.101562 C 196.539062 443.136719 196.613281 443.175781 196.726562 443.210938 C 196.875 443.25 197.585938 443.476562 198.375 443.699219 C 198.414062 443.699219 198.449219 443.738281 198.488281 443.738281 C 198.675781 443.773438 198.636719 443.773438 198.824219 443.851562 C 201.113281 444.5625 203.8125 445.574219 207.335938 446.25 C 207.375 446.25 207.375 446.25 207.414062 446.25 C 225.9375 449.664062 243.148438 451.199219 259.199219 451.199219 C 396.824219 451.238281 440.960938 339.414062 440.960938 339.414062 C 442.648438 334.949219 440.8125 329.925781 436.648438 327.601562 C 432.488281 325.3125 427.238281 326.398438 424.351562 330.1875 C 385.164062 381.710938 314.886719 392.136719 246.335938 376.386719 C 244.273438 375.898438 241.835938 375.148438 239.023438 374.289062 C 238.988281 374.289062 238.914062 374.25 238.875 374.25 C 238.386719 374.101562 237.863281 373.949219 237.601562 373.835938 C 237.449219 373.800781 237.300781 373.761719 237.148438 373.726562 C 234.75 372.976562 232.3125 372.148438 229.875 371.324219 C 229.835938 371.289062 229.761719 371.289062 229.6875 371.25 C 229.539062 371.210938 229.386719 371.175781 229.273438 371.101562 C 229.125 371.0625 228.976562 370.988281 228.789062 370.949219 C 226.914062 370.273438 224.886719 369.523438 222.789062 368.699219 L 222.449219 368.550781 C 221.625 368.25 220.914062 367.988281 220.613281 367.835938 C 218.363281 366.9375 216.039062 365.960938 213.75 364.949219 C 213.523438 364.835938 213.335938 364.761719 213.148438 364.6875 C 213.1875 364.6875 212.699219 364.5 212.398438 364.386719 C 210.414062 363.449219 208.460938 362.511719 206.4375 361.539062 C 206.289062 361.5 206.175781 361.425781 206.023438 361.351562 C 205.914062 361.3125 205.574219 361.164062 204.898438 360.789062 C 204.824219 360.75 204.75 360.710938 204.636719 360.675781 C 203.324219 360.039062 201.863281 359.289062 200.363281 358.460938 C 200.324219 358.425781 200.25 358.386719 200.210938 358.351562 C 199.011719 357.75 198.074219 357.300781 197.398438 356.886719 C 197.324219 356.886719 197.289062 356.851562 197.210938 356.8125 C 195.449219 355.875 193.613281 354.789062 191.664062 353.699219 L 192.414062 354.148438 C 191.136719 353.324219 190.238281 352.875 189.710938 352.574219 L 190.011719 352.726562 C 187.574219 351.261719 185.175781 349.800781 182.886719 348.335938 C 182.851562 348.300781 182.8125 348.300781 182.8125 348.261719 C 182.363281 348 181.835938 347.664062 181.199219 347.210938 C 181.085938 347.101562 180.9375 347.023438 180.824219 346.949219 C 179.25 345.9375 177.636719 344.8125 175.949219 343.6875 L 175.835938 343.613281 C 175.5 343.351562 174.976562 342.976562 174.261719 342.449219 C 172.761719 341.398438 171.261719 340.3125 169.726562 339.148438 L 169.648438 339.148438 C 169.574219 339.074219 169.539062 339.039062 169.460938 338.960938 C 168.863281 338.476562 168.1875 337.988281 167.511719 337.460938 C 166.011719 336.300781 164.585938 335.210938 163.3125 334.164062 L 163.125 334.050781 C 162.375 333.414062 161.699219 332.851562 161.210938 332.4375 C 161.210938 332.4375 161.175781 332.4375 161.136719 332.398438 C 159.375 330.976562 157.6875 329.476562 155.851562 327.898438 L 156.636719 328.6875 C 155.101562 326.960938 154.386719 326.738281 154.761719 327 L 155.289062 327.449219 C 153.449219 325.800781 151.574219 324.039062 149.664062 322.238281 L 149.550781 322.164062 C 149.25 321.863281 148.761719 321.375 148.125 320.773438 L 147.863281 320.511719 C 146.476562 319.164062 145.199219 317.886719 144.039062 316.726562 C 144 316.6875 144 316.6875 143.960938 316.648438 C 143.4375 316.125 142.949219 315.601562 142.351562 315 C 140.699219 313.351562 139.085938 311.585938 137.476562 309.789062 C 137.398438 309.710938 137.289062 309.601562 137.210938 309.488281 L 137.175781 309.488281 C 135.488281 307.648438 133.835938 305.738281 132.148438 303.75 C 132.148438 303.710938 132.148438 303.675781 132.113281 303.636719 C 131.851562 303.335938 131.398438 302.773438 130.6875 301.949219 C 129.523438 300.523438 128.363281 299.023438 127.085938 297.488281 L 127.050781 297.449219 C 126.636719 296.886719 126.1875 296.289062 125.925781 295.949219 L 125.886719 295.914062 C 124.460938 294.039062 123.113281 292.199219 121.761719 290.324219 L 121.726562 290.289062 C 103.648438 265.386719 91.164062 225.113281 87.675781 186.335938 C 84.148438 147.601562 90.1875 110.398438 103.6875 92.101562 C 105.863281 89.210938 106.199219 85.351562 104.585938 82.125 C 102.976562 78.863281 99.675781 76.835938 96.039062 76.800781 Z M 270.75 83.023438 C 271.273438 88.273438 270.710938 93.5625 271.988281 98.699219 C 277.574219 120.9375 290.0625 141.9375 307.949219 155.851562 C 314.0625 160.574219 320.625 164.664062 327.414062 168 C 327.449219 168.039062 327.488281 168.074219 327.523438 168.074219 C 331.125 169.800781 334.835938 171.375 338.625 172.761719 L 338.550781 172.726562 C 341.476562 173.8125 344.773438 174.9375 348.113281 175.761719 C 356.773438 177.898438 365.136719 179.023438 373.238281 179.476562 C 367.539062 180.636719 362.773438 182.585938 355.5 182.363281 C 349.800781 182.175781 343.5 181.460938 336.636719 180.113281 L 336.601562 180.113281 C 336.148438 180.039062 334.988281 179.585938 333 178.988281 C 332.773438 178.914062 332.324219 178.761719 331.835938 178.613281 C 330.675781 178.199219 329.738281 177.898438 329.023438 177.601562 C 328.949219 177.5625 328.914062 177.5625 328.835938 177.523438 C 305.136719 168.636719 284.625 149.664062 274.726562 125.851562 C 270.710938 116.175781 268.6875 106.050781 268.800781 96.113281 C 268.835938 91.648438 269.886719 87.335938 270.75 83.023438 Z M 173.175781 110.101562 C 170.738281 126.335938 170.773438 142.988281 175.6875 159 C 185.8125 192.375 206.960938 221.511719 233.699219 242.851562 C 234.261719 243.335938 234.824219 243.789062 235.199219 244.125 C 235.273438 244.164062 235.351562 244.238281 235.425781 244.273438 C 237.824219 246.148438 240.335938 248.0625 242.960938 249.898438 C 243 249.9375 243.074219 249.976562 243.148438 250.011719 C 244.351562 250.835938 245.550781 251.625 246.863281 252.449219 C 246.863281 252.488281 246.863281 252.488281 246.863281 252.488281 C 246.9375 252.523438 247.613281 253.050781 248.886719 253.800781 C 250.6875 254.960938 252.488281 256.050781 253.988281 256.988281 C 254.0625 257.023438 254.101562 257.0625 254.136719 257.101562 C 254.8125 257.476562 255.261719 257.738281 255.449219 257.8125 C 256.800781 258.636719 258.300781 259.539062 260.101562 260.476562 C 260.101562 260.476562 260.101562 260.476562 260.101562 260.511719 C 260.8125 260.851562 261.523438 261.226562 262.238281 261.5625 C 263.398438 262.164062 264.523438 262.761719 265.648438 263.363281 C 265.726562 263.398438 265.800781 263.4375 265.914062 263.476562 C 268.011719 264.523438 270.261719 265.574219 272.585938 266.585938 C 273.824219 267.226562 274.351562 267.414062 274.6875 267.523438 C 276.863281 268.5 278.925781 269.289062 280.800781 270.039062 C 281.738281 270.414062 282.636719 270.75 283.351562 271.050781 L 283.3125 271.011719 C 285.300781 271.761719 287.25 272.398438 289.085938 273 C 289.648438 273.226562 290.4375 273.449219 291.300781 273.710938 C 293.960938 274.613281 296.699219 275.4375 299.476562 276.148438 C 335.476562 285.636719 369.789062 280.761719 398.773438 267.148438 C 381.148438 282.9375 355.574219 296.699219 316.574219 297.5625 C 304.949219 297.824219 292.164062 296.925781 278.0625 294.5625 C 278.023438 294.523438 277.988281 294.523438 277.949219 294.523438 C 276.789062 294.335938 274.761719 293.585938 271.835938 292.648438 C 271.011719 292.425781 270.300781 292.164062 269.550781 291.898438 C 267.898438 291.375 266.210938 290.773438 264.5625 290.175781 L 264.488281 290.136719 C 264.074219 289.988281 263.25 289.6875 262.273438 289.351562 L 262.050781 289.238281 C 261.976562 289.199219 261.976562 289.199219 261.898438 289.199219 C 260.324219 288.5625 258.675781 287.851562 256.949219 287.101562 C 256.949219 287.101562 256.949219 287.101562 256.914062 287.101562 C 256.425781 286.875 255.9375 286.648438 255.375 286.460938 C 253.125 285.414062 250.988281 284.4375 249 283.425781 C 248.886719 283.386719 248.773438 283.351562 248.664062 283.3125 C 247.6875 282.75 246.601562 282.1875 245.4375 281.625 L 245.324219 281.550781 C 245.25 281.511719 245.210938 281.476562 245.136719 281.4375 C 244.6875 281.210938 244.199219 280.949219 244.199219 280.949219 C 243.976562 280.800781 243.75 280.6875 243.5625 280.574219 C 242.175781 279.863281 240.75 279.039062 239.398438 278.210938 C 239.136719 278.0625 238.914062 277.949219 238.648438 277.800781 C 238.648438 277.800781 238.425781 277.6875 238.3125 277.648438 C 236.664062 276.636719 235.085938 275.664062 233.476562 274.613281 C 233.4375 274.574219 233.398438 274.539062 233.363281 274.5 C 233.210938 274.425781 232.726562 274.085938 231.898438 273.5625 C 230.699219 272.773438 229.726562 272.136719 228.976562 271.613281 C 228.75 271.425781 228.488281 271.273438 228.226562 271.085938 C 228.226562 271.085938 228.1875 271.085938 228.148438 271.050781 C 225.976562 269.476562 223.835938 267.898438 221.8125 266.289062 C 221.699219 266.210938 221.585938 266.136719 221.511719 266.0625 C 221.476562 266.023438 220.914062 265.574219 220.199219 265.011719 C 218.0625 263.324219 216.039062 261.636719 214.050781 259.875 C 214.011719 259.835938 214.011719 259.835938 213.976562 259.800781 C 213.898438 259.726562 213.789062 259.648438 213.710938 259.574219 C 213.675781 259.539062 213.601562 259.5 213.5625 259.460938 C 213.488281 259.386719 213.449219 259.351562 213.414062 259.3125 C 211.539062 257.625 209.699219 255.898438 207.863281 254.101562 L 207.75 253.988281 C 207.261719 253.5 206.8125 253.050781 206.398438 252.601562 C 206.363281 252.601562 206.363281 252.5625 206.324219 252.5625 C 204.335938 250.574219 202.539062 248.699219 200.960938 246.863281 C 200.664062 246.523438 200.363281 246.226562 200.023438 245.960938 C 196.351562 242.738281 192.261719 236.664062 188.25 230.8125 C 188.210938 230.773438 188.210938 230.773438 188.210938 230.738281 C 184.164062 224.960938 180.5625 218.851562 177.414062 212.511719 C 177.414062 212.476562 177.414062 212.476562 177.414062 212.4375 C 161.324219 180.675781 159.1875 142.238281 173.175781 110.101562 Z M 69.789062 135.148438 C 67.648438 151.914062 66.898438 169.6875 68.550781 188.101562 C 72.300781 229.613281 84.9375 272.289062 106.199219 301.539062 C 107.664062 303.636719 109.164062 305.625 110.699219 307.648438 C 111.261719 308.398438 111.636719 308.851562 111.75 309 C 111.898438 309.226562 112.050781 309.449219 112.238281 309.636719 C 113.4375 311.136719 114.675781 312.675781 115.949219 314.289062 C 116.0625 314.398438 116.136719 314.476562 116.25 314.585938 C 116.476562 314.851562 116.886719 315.414062 117.5625 316.199219 C 119.289062 318.226562 121.085938 320.324219 122.960938 322.386719 C 123.039062 322.460938 123.113281 322.574219 123.1875 322.648438 C 124.949219 324.601562 126.789062 326.550781 128.664062 328.460938 C 129.148438 328.949219 129.675781 329.511719 130.3125 330.148438 C 130.351562 330.1875 130.351562 330.1875 130.351562 330.1875 L 130.386719 330.226562 C 131.886719 331.726562 133.273438 333.113281 134.585938 334.386719 C 134.664062 334.460938 134.773438 334.574219 134.851562 334.648438 C 135.148438 334.914062 135.601562 335.398438 136.386719 336.148438 C 136.425781 336.1875 136.460938 336.1875 136.5 336.226562 C 138.414062 338.023438 140.398438 339.898438 142.460938 341.699219 C 142.613281 341.886719 142.800781 342.039062 142.988281 342.1875 C 143.773438 342.789062 143.585938 342.863281 142.386719 341.550781 C 142.648438 341.8125 142.914062 342.074219 143.175781 342.300781 C 145.050781 343.988281 146.960938 345.636719 149.0625 347.324219 C 149.8125 347.925781 150.414062 348.414062 150.863281 348.789062 C 150.898438 348.824219 150.976562 348.898438 151.011719 348.9375 C 152.625 350.25 154.164062 351.414062 155.585938 352.539062 C 155.699219 352.648438 155.8125 352.726562 155.886719 352.800781 C 156.523438 353.210938 157.125 353.699219 157.800781 354.1875 C 157.875 354.300781 157.949219 354.375 158.0625 354.449219 C 159.75 355.648438 161.398438 356.886719 163.199219 358.164062 C 163.574219 358.425781 164.136719 358.875 164.851562 359.398438 C 164.886719 359.398438 164.925781 359.4375 165 359.4375 C 166.726562 360.636719 168.5625 361.914062 170.550781 363.148438 C 171.074219 363.523438 171.675781 363.976562 172.460938 364.460938 C 172.5 364.5 172.539062 364.5 172.539062 364.5 C 175.085938 366.148438 177.636719 367.726562 180.113281 369.1875 C 180.1875 369.226562 180.261719 369.300781 180.375 369.335938 C 181.199219 369.789062 181.574219 370.011719 181.5 369.976562 C 181.726562 370.125 181.988281 370.3125 182.25 370.460938 C 184.050781 371.4375 185.925781 372.523438 187.914062 373.613281 L 187.949219 373.648438 C 187.988281 373.648438 188.023438 373.6875 188.101562 373.6875 C 189.335938 374.398438 190.460938 374.960938 191.398438 375.449219 C 192.863281 376.238281 194.4375 377.0625 196.085938 377.851562 C 196.125 377.886719 196.238281 377.925781 196.238281 377.960938 C 196.3125 377.960938 196.3125 377.960938 196.351562 378 C 196.914062 378.261719 197.550781 378.636719 198.5625 379.050781 C 200.4375 379.988281 202.351562 380.886719 204.335938 381.789062 C 204.488281 381.863281 204.636719 381.9375 204.789062 382.011719 C 204.824219 382.011719 205.460938 382.273438 205.949219 382.5 C 208.351562 383.550781 210.898438 384.636719 213.5625 385.6875 C 213.5625 385.726562 213.601562 385.726562 213.601562 385.726562 C 214.460938 386.0625 214.988281 386.25 215.101562 386.289062 C 215.25 386.363281 215.363281 386.398438 215.511719 386.4375 C 217.726562 387.335938 220.050781 388.238281 222.523438 389.101562 C 222.9375 389.25 223.386719 389.398438 223.800781 389.550781 C 226.164062 390.375 228.601562 391.164062 231.113281 391.949219 C 232.085938 392.289062 232.949219 392.511719 233.699219 392.738281 C 236.175781 393.488281 238.914062 394.386719 242.0625 395.101562 C 292.875 406.800781 346.050781 403.835938 389.25 381.863281 C 364.273438 406.875 323.324219 432 259.199219 432 C 244.386719 432 228.335938 430.574219 210.898438 427.351562 C 209.175781 427.011719 206.960938 426.261719 204 425.363281 C 203.851562 425.289062 203.699219 425.25 203.550781 425.210938 C 203.511719 425.210938 202.914062 425.023438 202.199219 424.800781 L 201.898438 424.726562 C 199.5 423.976562 197.136719 423.1875 194.738281 422.363281 C 194.664062 422.324219 194.625 422.324219 194.550781 422.289062 C 194.289062 422.210938 194.363281 422.25 194.4375 422.25 C 194.324219 422.210938 194.175781 422.136719 194.0625 422.101562 C 191.773438 421.273438 189.488281 420.414062 187.351562 419.585938 C 187.199219 419.511719 187.011719 419.476562 186.824219 419.398438 C 186.898438 419.4375 186.375 419.210938 185.585938 418.914062 L 185.4375 418.835938 C 183.113281 417.898438 180.863281 416.960938 178.574219 415.949219 C 178.125 415.761719 177.523438 415.460938 177.449219 415.460938 C 177.414062 415.425781 177.375 415.386719 177.335938 415.386719 C 175.238281 414.449219 173.289062 413.550781 171.414062 412.613281 L 171.335938 412.613281 C 171.1875 412.5 170.625 412.238281 170.25 412.050781 C 169.386719 411.5625 169.273438 411.5625 168.976562 411.449219 L 168.824219 411.414062 C 167.625 410.773438 166.425781 410.136719 165.261719 409.5 C 165.148438 409.425781 165.039062 409.351562 164.925781 409.3125 C 163.800781 408.75 162.9375 408.300781 162.261719 407.925781 C 162.226562 407.886719 162.148438 407.851562 162.113281 407.851562 C 160.386719 406.914062 158.664062 405.9375 156.9375 404.925781 L 156.863281 404.886719 C 156.113281 404.4375 155.398438 404.023438 154.648438 403.648438 L 154.460938 403.5 C 152.210938 402.148438 150 400.761719 147.789062 399.335938 C 147.148438 398.886719 146.511719 398.511719 145.875 398.101562 L 145.835938 398.0625 C 145.835938 398.0625 145.835938 398.0625 145.800781 398.0625 C 144.335938 397.050781 142.914062 396.074219 141.375 395.0625 C 141.148438 394.875 140.886719 394.6875 140.625 394.5 C 140.25 394.273438 139.800781 393.9375 139.273438 393.5625 C 139.238281 393.523438 139.199219 393.488281 139.164062 393.449219 C 137.585938 392.363281 136.050781 391.238281 134.585938 390.148438 L 134.550781 390.113281 L 134.511719 390.113281 C 133.800781 389.550781 133.085938 388.988281 132.300781 388.386719 L 132.261719 388.351562 C 130.761719 387.226562 129.375 386.175781 128.101562 385.125 L 128.0625 385.085938 C 127.3125 384.488281 126.675781 384 126.148438 383.550781 C 126.148438 383.511719 126.113281 383.511719 126.113281 383.511719 C 124.386719 382.050781 122.699219 380.585938 121.011719 379.164062 C 120.789062 378.9375 120.601562 378.789062 120.449219 378.710938 C 120.300781 378.523438 120.113281 378.375 119.960938 378.226562 C 118.238281 376.761719 116.476562 375.074219 114.636719 373.351562 L 114.601562 373.273438 C 113.960938 372.675781 113.398438 372.1875 112.914062 371.699219 C 112.875 371.664062 112.835938 371.625 112.800781 371.585938 C 111.601562 370.460938 110.363281 369.148438 108.976562 367.761719 C 108.898438 367.6875 108.824219 367.613281 108.75 367.5 C 108.226562 367.011719 107.773438 366.601562 107.324219 366.148438 C 105.636719 364.351562 103.988281 362.585938 102.335938 360.789062 C 102.300781 360.75 102.261719 360.710938 102.261719 360.710938 C 102.1875 360.601562 102.113281 360.523438 102 360.449219 C 100.351562 358.574219 98.738281 356.738281 97.199219 354.863281 C 97.125 354.789062 97.050781 354.710938 96.976562 354.601562 C 96.675781 354.261719 96.261719 353.773438 95.8125 353.25 L 95.773438 353.210938 C 95.773438 353.175781 95.738281 353.136719 95.699219 353.101562 C 94.539062 351.636719 93.300781 350.101562 92.023438 348.5625 C 91.574219 347.960938 91.164062 347.398438 90.976562 347.101562 C 90.863281 346.988281 90.789062 346.875 90.710938 346.800781 C 89.476562 345.1875 88.238281 343.574219 87 341.851562 L 86.925781 341.738281 C 86.585938 341.25 86.363281 340.988281 86.476562 341.136719 C 86.398438 341.023438 86.324219 340.914062 86.25 340.800781 C 86.175781 340.6875 86.101562 340.613281 86.023438 340.5 C 85.988281 340.460938 85.949219 340.386719 85.914062 340.351562 C 85.914062 340.351562 85.914062 340.351562 85.875 340.351562 C 84.601562 338.550781 83.324219 336.636719 81.976562 334.613281 C 81.9375 334.5 81.863281 334.386719 81.75 334.273438 C 81.523438 333.9375 81.226562 333.449219 80.851562 332.851562 L 80.738281 332.699219 C 79.613281 330.863281 78.601562 329.363281 77.925781 328.199219 C 77.851562 328.050781 77.738281 327.863281 77.625 327.710938 C 77.324219 327.261719 76.949219 326.585938 76.386719 325.6875 L 76.351562 325.613281 C 75.5625 324.300781 74.738281 322.914062 73.875 321.449219 L 73.875 321.375 C 73.800781 321.300781 73.800781 321.261719 73.726562 321.1875 C 73.351562 320.4375 73.011719 319.800781 72.75 319.273438 C 72.636719 319.050781 72.523438 318.863281 72.375 318.636719 C 71.960938 317.886719 71.8125 317.550781 72.148438 318.261719 C 72 317.925781 71.851562 317.625 71.699219 317.363281 C 71.363281 316.761719 71.023438 316.199219 70.800781 315.601562 C 70.726562 315.449219 70.648438 315.300781 70.574219 315.148438 C 69.824219 313.726562 69.226562 312.601562 68.773438 311.699219 C 68.738281 311.585938 68.699219 311.476562 68.664062 311.398438 C 43.648438 260.960938 40.125 183.226562 69.789062 135.148438 Z M 214.238281 260.210938 L 214.351562 260.25 C 214.5 260.476562 214.460938 260.398438 214.648438 260.699219 C 214.539062 260.511719 214.386719 260.363281 214.238281 260.210938 Z M 102.414062 361.011719 C 102.414062 361.011719 102.523438 361.125 102.5625 361.164062 C 102.675781 361.273438 102.636719 361.238281 102.75 361.386719 L 102.789062 361.425781 L 102.789062 361.460938 C 102.863281 361.5 102.898438 361.613281 102.9375 361.6875 C 102.636719 361.273438 102.523438 361.125 102.414062 361.011719 Z M 141.5625 395.25 L 141.898438 395.4375 C 141.226562 394.949219 141.261719 394.914062 141.898438 395.511719 C 141.789062 395.398438 141.675781 395.324219 141.5625 395.25 Z M 141.5625 395.25 "/>
</g>
</svg>
